<?xml version="1.0" encoding="utf-8"?>
<!-- Generator: Adobe Illustrator 22.1.0, SVG Export Plug-In . SVG Version: 6.00 Build 0)  -->
<svg version="1.1" id="AT" xmlns="http://www.w3.org/2000/svg" xmlns:xlink="http://www.w3.org/1999/xlink" x="0px" y="0px"
     viewBox="0 0 28 20" style="enable-background:new 0 0 28 20;" xml:space="preserve">
<style type="text/css">
	.st0{clip-path:url(#SVGID_2_);}
	.st1{clip-path:url(#SVGID_4_);enable-background:new    ;}
	.st2{clip-path:url(#SVGID_6_);}
	.st3{clip-path:url(#SVGID_8_);}
	.st4{clip-path:url(#SVGID_10_);enable-background:new    ;}
	.st5{clip-path:url(#SVGID_12_);}
	.st6{clip-path:url(#SVGID_14_);fill:#FFFFFF;}
	.st7{clip-path:url(#SVGID_14_);fill:none;stroke:#F5F5F5;stroke-miterlimit:10;}
	.st8{clip-path:url(#SVGID_16_);}
	.st9{clip-path:url(#SVGID_18_);fill:#F14247;}
	.st10{clip-path:url(#SVGID_20_);}
	.st11{clip-path:url(#SVGID_22_);fill:#0A3A85;}
	.st12{clip-path:url(#SVGID_24_);}
	.st13{clip-path:url(#SVGID_26_);enable-background:new    ;}
	.st14{clip-path:url(#SVGID_28_);}
	.st15{clip-path:url(#SVGID_30_);fill:none;stroke:#F5F5F5;stroke-miterlimit:10;}
	.st16{clip-path:url(#SVGID_32_);}
	.st17{clip-path:url(#SVGID_34_);enable-background:new    ;}
	.st18{clip-path:url(#SVGID_36_);}
	.st19{clip-path:url(#SVGID_38_);fill:none;stroke:#F5F5F5;stroke-miterlimit:10;}
</style>
    <g>
	<defs>
		<path id="SVGID_1_" d="M0,2c0-1.1,0.9-2,2-2h24c1.1,0,2,0.9,2,2v16c0,1.1-0.9,2-2,2H2c-1.1,0-2-0.9-2-2V2z"/>
	</defs>
        <clipPath id="SVGID_2_">
		<use xlink:href="#SVGID_1_" style="overflow:visible;"/>
	</clipPath>
        <g class="st0">
		<defs>
			<rect id="SVGID_3_" x="-220" y="-652" width="948" height="1228"/>
		</defs>
            <clipPath id="SVGID_4_">
			<use xlink:href="#SVGID_3_" style="overflow:visible;"/>
		</clipPath>
            <g class="st1">
			<g>
				<defs>
					<rect id="SVGID_5_" x="0" y="0" width="28" height="20"/>
				</defs>
                <clipPath id="SVGID_6_">
					<use xlink:href="#SVGID_5_" style="overflow:visible;"/>
				</clipPath>
                <g class="st2">
					<defs>
						<path id="SVGID_7_"
                              d="M0,2c0-1.1,0.9-2,2-2h24c1.1,0,2,0.9,2,2v16c0,1.1-0.9,2-2,2H2c-1.1,0-2-0.9-2-2V2z"/>
					</defs>
                    <clipPath id="SVGID_8_">
						<use xlink:href="#SVGID_7_" style="overflow:visible;"/>
					</clipPath>
                    <g class="st3">
						<defs>
							<rect id="SVGID_9_" x="0" y="0" width="28" height="20"/>
						</defs>
                        <clipPath id="SVGID_10_">
							<use xlink:href="#SVGID_9_" style="overflow:visible;"/>
						</clipPath>
                        <g class="st4">
							<g>
								<defs>
									<rect id="SVGID_11_" x="-5" y="-5" width="38" height="30"/>
								</defs>
                                <clipPath id="SVGID_12_">
									<use xlink:href="#SVGID_11_" style="overflow:visible;"/>
								</clipPath>
                                <g class="st5">
									<defs>
										<rect id="SVGID_13_" x="0" y="0" width="28" height="20"/>
									</defs>
                                    <clipPath id="SVGID_14_">
										<use xlink:href="#SVGID_13_" style="overflow:visible;"/>
									</clipPath>
                                    <path class="st6"
                                          d="M0,2c0-1.1,0.9-2,2-2h24c1.1,0,2,0.9,2,2v16c0,1.1-0.9,2-2,2H2c-1.1,0-2-0.9-2-2V2z"/>
                                    <path class="st7"
                                          d="M0,2c0-1.1,0.9-2,2-2h24c1.1,0,2,0.9,2,2v16c0,1.1-0.9,2-2,2H2c-1.1,0-2-0.9-2-2V2z"/>
								</g>
							</g>
						</g>
					</g>
				</g>
                <g class="st2">
					<defs>
						<path id="SVGID_15_" d="M8,8H0V0h8V8z M28,0v8H12V0H28z M28,12v8H12v-8H28z M0,12h8v8H0V12z"/>
					</defs>
                    <clipPath id="SVGID_16_">
						<use xlink:href="#SVGID_15_" style="overflow:visible;"/>
					</clipPath>
                    <g class="st8">
						<defs>
							<rect id="SVGID_17_" x="0" y="0" width="28" height="20"/>
						</defs>
                        <clipPath id="SVGID_18_">
							<use xlink:href="#SVGID_17_" style="overflow:visible;"/>
						</clipPath>
                        <rect x="-5" y="-5" class="st9" width="38" height="30"/>
					</g>
				</g>
                <g class="st2">
					<defs>
						<polygon id="SVGID_19_" points="0,10.7 9.3,10.7 9.3,20 10.7,20 10.7,10.7 28,10.7 28,9.3 10.7,9.3 10.7,0 9.3,0 9.3,9.3
							0,9.3 						"/>
					</defs>
                    <clipPath id="SVGID_20_">
						<use xlink:href="#SVGID_19_" style="overflow:visible;"/>
					</clipPath>
                    <g class="st10">
						<defs>
							<rect id="SVGID_21_" x="0" y="0" width="28" height="20"/>
						</defs>
                        <clipPath id="SVGID_22_">
							<use xlink:href="#SVGID_21_" style="overflow:visible;"/>
						</clipPath>
                        <rect x="-5" y="-5" class="st11" width="38" height="30"/>
					</g>
				</g>
			</g>
		</g>
	</g>
</g>
    <g>
	<defs>
		<path id="SVGID_23_" d="M0,2c0-1.1,0.9-2,2-2h24c1.1,0,2,0.9,2,2v16c0,1.1-0.9,2-2,2H2c-1.1,0-2-0.9-2-2V2z"/>
	</defs>
        <clipPath id="SVGID_24_">
		<use xlink:href="#SVGID_23_" style="overflow:visible;"/>
	</clipPath>
        <g class="st12">
		<defs>
			<rect id="SVGID_25_" x="-364" y="-412" width="948" height="1228"/>
		</defs>
            <clipPath id="SVGID_26_">
			<use xlink:href="#SVGID_25_" style="overflow:visible;"/>
		</clipPath>
            <g class="st13">
			<g>
				<defs>
					<rect id="SVGID_27_" x="-5" y="-5" width="38" height="30"/>
				</defs>
                <clipPath id="SVGID_28_">
					<use xlink:href="#SVGID_27_" style="overflow:visible;"/>
				</clipPath>
                <g class="st14">
					<defs>
						<rect id="SVGID_29_" x="0" y="0" width="28" height="20"/>
					</defs>
                    <clipPath id="SVGID_30_">
						<use xlink:href="#SVGID_29_" style="overflow:visible;"/>
					</clipPath>
                    <path class="st15"
                          d="M0,2c0-1.1,0.9-2,2-2h24c1.1,0,2,0.9,2,2v16c0,1.1-0.9,2-2,2H2c-1.1,0-2-0.9-2-2V2z"/>
				</g>
			</g>
		</g>
	</g>
</g>
    <g>
	<defs>
		<path id="SVGID_31_" d="M0,2c0-1.1,0.9-2,2-2h24c1.1,0,2,0.9,2,2v16c0,1.1-0.9,2-2,2H2c-1.1,0-2-0.9-2-2V2z"/>
	</defs>
        <clipPath id="SVGID_32_">
		<use xlink:href="#SVGID_31_" style="overflow:visible;"/>
	</clipPath>
        <g class="st16">
		<defs>
			<rect id="SVGID_33_" x="-220" y="-652" width="948" height="1228"/>
		</defs>
            <clipPath id="SVGID_34_">
			<use xlink:href="#SVGID_33_" style="overflow:visible;"/>
		</clipPath>
            <g class="st17">
			<g>
				<defs>
					<rect id="SVGID_35_" x="-5" y="-5" width="38" height="30"/>
				</defs>
                <clipPath id="SVGID_36_">
					<use xlink:href="#SVGID_35_" style="overflow:visible;"/>
				</clipPath>
                <g class="st18">
					<defs>
						<rect id="SVGID_37_" x="0" y="0" width="28" height="20"/>
					</defs>
                    <clipPath id="SVGID_38_">
						<use xlink:href="#SVGID_37_" style="overflow:visible;"/>
					</clipPath>
                    <path class="st19"
                          d="M0,2c0-1.1,0.9-2,2-2h24c1.1,0,2,0.9,2,2v16c0,1.1-0.9,2-2,2H2c-1.1,0-2-0.9-2-2V2z"/>
				</g>
			</g>
		</g>
	</g>
</g>
</svg>
