<?xml version="1.0" encoding="utf-8"?>
<!-- Generator: Adobe Illustrator 22.1.0, SVG Export Plug-In . SVG Version: 6.00 Build 0)  -->
<svg version="1.1" id="AT" xmlns="http://www.w3.org/2000/svg" xmlns:xlink="http://www.w3.org/1999/xlink" x="0px" y="0px"
     viewBox="0 0 28 20" style="enable-background:new 0 0 28 20;" xml:space="preserve">
<style type="text/css">
	.st0{clip-path:url(#SVGID_2_);}
	.st1{clip-path:url(#SVGID_4_);enable-background:new    ;}
	.st2{clip-path:url(#SVGID_6_);}
	.st3{clip-path:url(#SVGID_8_);fill:#FFFFFF;}
	.st4{clip-path:url(#SVGID_8_);fill:#157CBB;}
	.st5{clip-path:url(#SVGID_10_);}
	.st6{clip-path:url(#SVGID_12_);fill:#FFD34D;}
	.st7{clip-path:url(#SVGID_14_);}
	.st8{clip-path:url(#SVGID_16_);enable-background:new    ;}
	.st9{clip-path:url(#SVGID_18_);}
	.st10{clip-path:url(#SVGID_20_);fill:none;stroke:#F5F5F5;stroke-miterlimit:10;}
	.st11{clip-path:url(#SVGID_22_);}
	.st12{clip-path:url(#SVGID_24_);enable-background:new    ;}
	.st13{clip-path:url(#SVGID_26_);}
	.st14{clip-path:url(#SVGID_28_);fill:none;stroke:#F5F5F5;stroke-miterlimit:10;}
</style>
    <g>
	<defs>
		<path id="SVGID_1_" d="M0,2c0-1.1,0.9-2,2-2h24c1.1,0,2,0.9,2,2v16c0,1.1-0.9,2-2,2H2c-1.1,0-2-0.9-2-2V2z"/>
	</defs>
        <clipPath id="SVGID_2_">
		<use xlink:href="#SVGID_1_" style="overflow:visible;"/>
	</clipPath>
        <g class="st0">
		<defs>
			<rect id="SVGID_3_" x="-508" y="-892" width="948" height="1228"/>
		</defs>
            <clipPath id="SVGID_4_">
			<use xlink:href="#SVGID_3_" style="overflow:visible;"/>
		</clipPath>
            <g class="st1">
			<g>
				<defs>
					<rect id="SVGID_5_" x="-5" y="-5" width="38" height="30"/>
				</defs>
                <clipPath id="SVGID_6_">
					<use xlink:href="#SVGID_5_" style="overflow:visible;"/>
				</clipPath>
                <g class="st2">
					<defs>
						<rect id="SVGID_7_" x="0" y="0" width="28" height="20"/>
					</defs>
                    <clipPath id="SVGID_8_">
						<use xlink:href="#SVGID_7_" style="overflow:visible;"/>
					</clipPath>
                    <rect x="-5" y="-5" class="st3" width="38" height="30"/>
                    <rect x="-5" y="-5" class="st4" width="38" height="30"/>
				</g>
                <g class="st2">
					<defs>
						<polygon id="SVGID_9_"
                                 points="0,12 8,12 8,20 12,20 12,12 28,12 28,8 12,8 12,0 8,0 8,8 0,8 						"/>
					</defs>
                    <clipPath id="SVGID_10_">
						<use xlink:href="#SVGID_9_" style="overflow:visible;"/>
					</clipPath>
                    <g class="st5">
						<defs>
							<rect id="SVGID_11_" x="0" y="0" width="28" height="20"/>
						</defs>
                        <clipPath id="SVGID_12_">
							<use xlink:href="#SVGID_11_" style="overflow:visible;"/>
						</clipPath>
                        <rect x="-5" y="-5" class="st6" width="38" height="30"/>
					</g>
				</g>
			</g>
		</g>
	</g>
</g>
    <g>
	<defs>
		<path id="SVGID_13_" d="M0,2c0-1.1,0.9-2,2-2h24c1.1,0,2,0.9,2,2v16c0,1.1-0.9,2-2,2H2c-1.1,0-2-0.9-2-2V2z"/>
	</defs>
        <clipPath id="SVGID_14_">
		<use xlink:href="#SVGID_13_" style="overflow:visible;"/>
	</clipPath>
        <g class="st7">
		<defs>
			<rect id="SVGID_15_" x="-364" y="-412" width="948" height="1228"/>
		</defs>
            <clipPath id="SVGID_16_">
			<use xlink:href="#SVGID_15_" style="overflow:visible;"/>
		</clipPath>
            <g class="st8">
			<g>
				<defs>
					<rect id="SVGID_17_" x="-5" y="-5" width="38" height="30"/>
				</defs>
                <clipPath id="SVGID_18_">
					<use xlink:href="#SVGID_17_" style="overflow:visible;"/>
				</clipPath>
                <g class="st9">
					<defs>
						<rect id="SVGID_19_" x="0" y="0" width="28" height="20"/>
					</defs>
                    <clipPath id="SVGID_20_">
						<use xlink:href="#SVGID_19_" style="overflow:visible;"/>
					</clipPath>
                    <path class="st10"
                          d="M0,2c0-1.1,0.9-2,2-2h24c1.1,0,2,0.9,2,2v16c0,1.1-0.9,2-2,2H2c-1.1,0-2-0.9-2-2V2z"/>
				</g>
			</g>
		</g>
	</g>
</g>
    <g>
	<defs>
		<path id="SVGID_21_" d="M0,2c0-1.1,0.9-2,2-2h24c1.1,0,2,0.9,2,2v16c0,1.1-0.9,2-2,2H2c-1.1,0-2-0.9-2-2V2z"/>
	</defs>
        <clipPath id="SVGID_22_">
		<use xlink:href="#SVGID_21_" style="overflow:visible;"/>
	</clipPath>
        <g class="st11">
		<defs>
			<rect id="SVGID_23_" x="-220" y="-652" width="948" height="1228"/>
		</defs>
            <clipPath id="SVGID_24_">
			<use xlink:href="#SVGID_23_" style="overflow:visible;"/>
		</clipPath>
            <g class="st12">
			<g>
				<defs>
					<rect id="SVGID_25_" x="-5" y="-5" width="38" height="30"/>
				</defs>
                <clipPath id="SVGID_26_">
					<use xlink:href="#SVGID_25_" style="overflow:visible;"/>
				</clipPath>
                <g class="st13">
					<defs>
						<rect id="SVGID_27_" x="0" y="0" width="28" height="20"/>
					</defs>
                    <clipPath id="SVGID_28_">
						<use xlink:href="#SVGID_27_" style="overflow:visible;"/>
					</clipPath>
                    <path class="st14"
                          d="M0,2c0-1.1,0.9-2,2-2h24c1.1,0,2,0.9,2,2v16c0,1.1-0.9,2-2,2H2c-1.1,0-2-0.9-2-2V2z"/>
				</g>
			</g>
		</g>
	</g>
</g>
</svg>
