<?xml version="1.0" encoding="utf-8"?>
<!-- Generator: Adobe Illustrator 22.1.0, SVG Export Plug-In . SVG Version: 6.00 Build 0)  -->
<svg version="1.1" id="AT" xmlns="http://www.w3.org/2000/svg" xmlns:xlink="http://www.w3.org/1999/xlink" x="0px" y="0px"
     viewBox="0 0 28 20" style="enable-background:new 0 0 28 20;" xml:space="preserve">
<style type="text/css">
	.st0{clip-path:url(#SVGID_2_);}
	.st1{clip-path:url(#SVGID_4_);enable-background:new    ;}
	.st2{clip-path:url(#SVGID_6_);}
	.st3{clip-path:url(#SVGID_8_);fill:#FFFFFF;}
	.st4{clip-path:url(#SVGID_8_);fill:#0E4CB5;}
	.st5{clip-path:url(#SVGID_10_);}
	.st6{clip-path:url(#SVGID_12_);fill:#FFFFFF;}
	.st7{clip-path:url(#SVGID_14_);}
	.st8{clip-path:url(#SVGID_16_);fill:#EB363A;}
</style>
    <g>
	<defs>
		<path id="SVGID_1_" d="M0,2c0-1.1,0.9-2,2-2h24c1.1,0,2,0.9,2,2v16c0,1.1-0.9,2-2,2H2c-1.1,0-2-0.9-2-2V2z"/>
	</defs>
        <clipPath id="SVGID_2_">
		<use xlink:href="#SVGID_1_" style="overflow:visible;"/>
	</clipPath>
        <g class="st0">
		<defs>
			<rect id="SVGID_3_" x="-268" y="-412" width="948" height="1228"/>
		</defs>
            <clipPath id="SVGID_4_">
			<use xlink:href="#SVGID_3_" style="overflow:visible;"/>
		</clipPath>
            <g class="st1">
			<g>
				<defs>
					<rect id="SVGID_5_" x="-5" y="-5" width="38" height="30"/>
				</defs>
                <clipPath id="SVGID_6_">
					<use xlink:href="#SVGID_5_" style="overflow:visible;"/>
				</clipPath>
                <g class="st2">
					<defs>
						<rect id="SVGID_7_" x="0" y="0" width="28" height="20"/>
					</defs>
                    <clipPath id="SVGID_8_">
						<use xlink:href="#SVGID_7_" style="overflow:visible;"/>
					</clipPath>
                    <rect x="-5" y="-5" class="st3" width="38" height="30"/>
                    <rect x="-5" y="-5" class="st4" width="38" height="30"/>
				</g>
                <g class="st2">
					<defs>
						<polygon id="SVGID_9_"
                                 points="0,12 8,12 8,20 12,20 12,12 28,12 28,8 12,8 12,0 8,0 8,8 0,8 						"/>
					</defs>
                    <clipPath id="SVGID_10_">
						<use xlink:href="#SVGID_9_" style="overflow:visible;"/>
					</clipPath>
                    <g class="st5">
						<defs>
							<rect id="SVGID_11_" x="0" y="0" width="28" height="20"/>
						</defs>
                        <clipPath id="SVGID_12_">
							<use xlink:href="#SVGID_11_" style="overflow:visible;"/>
						</clipPath>
                        <rect x="-5" y="-5" class="st6" width="38" height="30"/>
					</g>
				</g>
                <g class="st2">
					<defs>
						<polygon id="SVGID_13_" points="0,10.7 9.3,10.7 9.3,20 10.7,20 10.7,10.7 28,10.7 28,9.3 10.7,9.3 10.7,0 9.3,0 9.3,9.3
							0,9.3 						"/>
					</defs>
                    <clipPath id="SVGID_14_">
						<use xlink:href="#SVGID_13_" style="overflow:visible;"/>
					</clipPath>
                    <g class="st7">
						<defs>
							<rect id="SVGID_15_" x="0" y="0" width="28" height="20"/>
						</defs>
                        <clipPath id="SVGID_16_">
							<use xlink:href="#SVGID_15_" style="overflow:visible;"/>
						</clipPath>
                        <rect x="-5" y="-5" class="st8" width="38" height="30"/>
					</g>
				</g>
			</g>
		</g>
	</g>
</g>
</svg>
