<?xml version="1.0" encoding="utf-8"?>
<svg viewBox="0 0 512 353.105" width="512" height="353.105" xmlns="http://www.w3.org/2000/svg">
  <path d="M397.242 353.105h97.102c9.75 0 17.656-7.906 17.656-17.656V17.656C512 7.902 504.094 0 494.344 0H17.656C7.902 0 0 7.906 0 17.656V335.45c0 9.75 7.902 17.653 17.656 17.653h379.586zm0 0" fill="#2c2f38"/>
  <path d="M512 17.656V335.45c-.027 9.739-7.914 17.625-17.656 17.653H353.102V0h141.242c9.742.027 17.629 7.918 17.656 17.656zm0 0" fill="#c03a2b"/>
  <path d="M158.898 0h194.207v353.102H158.898zm0 0" fill="#f0c419"/>
</svg>