<?xml version="1.0" encoding="utf-8"?>
<!-- Generator: Adobe Illustrator 22.1.0, SVG Export Plug-In . SVG Version: 6.00 Build 0)  -->
<svg version="1.1" id="Layer_1" xmlns="http://www.w3.org/2000/svg" xmlns:xlink="http://www.w3.org/1999/xlink" x="0px"
     y="0px"
     viewBox="0 0 206.8 38.8" style="enable-background:new 0 0 206.8 38.8;" xml:space="preserve">
<style type="text/css">
	.st0{fill:#F8971D;}
	.st1{fill:#004D43;}
</style>
    <g>
	<polygon class="st0" points="81.8,0.6 75.2,4.8 76.8,7.4 83.7,3.9 	"/>
        <g>
		<g>
			<path class="st1" d="M12.5,14.9h11.8v4.7l-1.6,0.2v7.7c-3.6,1.3-5.9,1.7-9,1.7c-8.9,0-13.4-4.6-13.4-13c0-7,5.2-13.3,13.8-13.3
				c4.1,0,6.5,0.4,8.5,1.1v7.9h-5.8l-0.3-2.4c0-0.1-1-0.2-2-0.2c-3.4,0-6.5,2-6.5,6.7c0,3.9,1.3,7,6.4,7c0.3,0,0.8,0,1.2-0.1v-2.8
				l-3.2-0.4v-4.8H12.5z"/>
            <path class="st1" d="M38.2,20.5c-3.4,0-4.5,0.7-4.5,2.1c0,0.9,0.7,1.9,2.3,1.9c1.7,0,3.3-1.1,3.3-3.9h-1.1V20.5z M39.2,16.6
				c0-2.3-1.2-3-2.4-3c-1.5,0-2,0.2-2.9,0.5l-0.2,2h-3.7v-5.7c1.9-0.9,3.8-1.3,7.2-1.3c5.1,0,7.8,1.7,7.8,7.2c0,3.1-0.1,5.2-0.2,7.9
				l3.1,0.3v3.9l-3.5,0.3h-4.7v-1.3c0-1.2,0-0.8,0.2-1.6c0,0-1.8,3.2-4.8,3.2c-4.3,0-6.4-2.5-6.4-5.5c0-2.7,1.8-4.5,3.8-5.2
				c1.9-0.7,3-1.2,6.7-1.2C39.1,17.1,39.1,16.6,39.2,16.6z"/>
		</g>
            <polygon class="st1" points="56.2,4.9 53,4.4 53,1.4 56.5,1.1 61.1,1.1 61.1,25 64.2,25.5 64.2,28.7 53,28.7 53,25.5 56.2,25.1
			"/>
            <g>
			<path class="st1" d="M101.1,25c0.8,0.5,1.9,0.8,3.3,0.8c3.4,0,5.3-3.3,5.3-7c0-3.5-1.2-6-4-6s-4.6,2.5-4.6,6.9
				C101.1,19.7,101.1,25,101.1,25z M93.8,10.1l3.5-0.4h3.6c0,1.3-0.3,3.9-0.3,3.9c1-2.5,3.1-4.3,6.3-4.3c4,0,6.9,3.3,6.9,9
				c0,6.3-3.4,10.8-9.2,10.8c-1.3,0-2.6-0.2-3.7-0.6l-0.1,9.4H97L97.1,13l-3.2-0.3V10.1z"/>
                <path class="st1" d="M131.9,20.1c-4,0-8,0.8-8,3.3c0,2,1.3,2.9,3,2.9C128.8,26.4,131.9,25.5,131.9,20.1 M122.2,13.8l-0.6-2.8
				c2.1-0.8,3.9-1.4,6.2-1.4c4.8,0,7.6,1.7,7.6,6.7c0,1.6-0.1,6.5-0.1,9.8l3.2,0.3v2l-3.2,0.3h-3.1v-0.8c0-1.1,0.1-2.8,0.1-2.8
				c-1.2,2.5-3.4,4-6.1,4c-2.1,0-5.9-0.8-5.7-5.4c0.2-4,5-6,11.3-6v-1.1c0-3.5-1.4-4.4-4.4-4.4c-1.1,0-2.9,0.3-4.2,0.9
				C122.6,13.5,122.2,13.8,122.2,13.8"/>
                <path class="st1" d="M148.1,16.4c0,2.6,2.2,4.6,4.8,4.6c3.2,0,5.2-2.1,5.2-4.7c0-1.8-1.4-4.4-5-4.4
				C150.1,11.8,148.1,13.5,148.1,16.4 M151.6,29c-0.4,0-4.1,1.1-4.1,3.5c0,2.9,4.4,3.3,6.2,3.3c2.3,0,6.1-0.7,6.1-3.7
				c0-1.7-1.5-2.1-3.2-2.4L151.6,29z M163.2,12.1h-1.7c-0.5,0-2-0.1-2.5-0.2c1.5,1.5,1.8,3.1,1.8,4.5c0,4.2-3.5,6.7-7.9,6.7
				c-0.8,0-3.4,0.4-3.4,1.8c0,0.9,0.9,1.2,3.2,1.6l5,0.8c2.9,0.5,5.1,1.5,5.1,4.5c0,4.3-4.5,6.3-9.2,6.3c-4.5,0-8.9-1.5-8.9-5.1
				c0-2.8,2.3-4.1,4.7-4.6v-0.1c-1.5-0.3-2.9-1.2-2.9-2.9c0-1.9,1.9-2.4,3.4-2.8v-0.1c-1.3-0.3-4.7-1.6-4.7-6.3
				c0-3.9,3.2-6.8,7.8-6.8c1,0,2.4,0.2,3.2,0.4h7L163.2,12.1L163.2,12.1z"/>
                <path class="st1" d="M177.9,27c4.2,0,6.2-3.4,6.2-7.7s-2.1-7.7-6.2-7.7c-4.2,0-6.2,3.4-6.2,7.7C171.6,23.6,173.8,27,177.9,27
				 M177.9,9.8c5.6,0,8.8,3.8,8.8,9.1c0,5.8-3.3,10.1-8.8,10.1c-5.6,0-8.9-3.8-8.9-9.1C169.1,14,172.4,9.8,177.9,9.8"/>
                <path class="st1" d="M194.1,26c1.2,0.7,2.9,1.4,4.9,1.4c3.4,0,4.9-1.7,4.9-3.6c0-2.2-1.5-3.2-4.6-4.2c-3.5-1.1-5.3-2.8-5.3-5
				c0-2.6,2.2-5.2,6.4-5.2c1.5,0,2.8,0.4,3.9,0.8v2c-0.7-0.4-2.1-1.2-4.3-1.2c-2.7,0-4.1,1.6-4.1,3.3c0,2.1,1.7,2.9,4.6,3.8
				c3.6,1.2,5.3,2.6,5.3,5.4c0,3-2.6,5.4-7.1,5.4c-1.8,0-3.4-0.4-4.8-1C193.9,28,194.1,26,194.1,26"/>
                <path class="st1" d="M79.7,20.5c-3.6,0-5,1.4-5,2.6c0,1.1,0.7,2.2,2.4,2.2c1.7,0,3.8-1.4,3.8-4.9L79.7,20.5L79.7,20.5z
				 M80.8,16.5c0-2.9-1.2-3.2-3.6-3.2c-0.7,0-2.1,0.2-3.2,0.5c-1,0.3-2.4,0.7-2.4,0.7l-0.4-3.7c0.5-0.3,3.4-1.3,6.8-1.3
				c5.1,0,7.7,1.5,7.7,7c0,3.1-0.1,5.7-0.2,8.4l3.4,0.3v3.1l-3.3,0.3h-4.3v-1.2c0-1.2,0.2-1.9,0.2-1.9c-1,2.5-3.8,3.5-5.6,3.5
				c-4.3,0-6-2.5-6-5.5c0-2.7,2.6-4.7,4.1-5.2c1.9-0.7,3.1-1.2,6.8-1.2V16.5z"/>
		</g>
	</g>
</g>
</svg>
